<svg width="139" height="21" viewBox="0 0 139 21" fill="none" xmlns="http://www.w3.org/2000/svg">
<path d="M5.66797 0C6.73794 4.239e-05 7.70376 0.256257 8.56543 0.767578C9.4271 1.2884 10.1095 1.98431 10.6113 2.85547C11.1226 3.7266 11.3779 4.70702 11.3779 5.7959V7.13086C11.3779 7.2065 11.3307 7.24402 11.2363 7.24414H7.96875C7.89305 7.24411 7.85547 7.20659 7.85547 7.13086V6.02246C7.85539 5.28406 7.64701 4.67327 7.23047 4.19043C6.81386 3.70754 6.29285 3.46589 5.66797 3.46582C5.10926 3.46582 4.61139 3.69809 4.17578 4.16211C3.74031 4.62608 3.52246 5.171 3.52246 5.7959V15.0146C3.52252 15.649 3.73603 16.1982 4.16211 16.6621C4.58824 17.1166 5.09034 17.3438 5.66797 17.3438C6.2928 17.3437 6.81388 17.1217 7.23047 16.6768C7.64708 16.2223 7.85541 15.6679 7.85547 15.0146V13.5801H5.82422C5.72005 13.5801 5.66797 13.5322 5.66797 13.4375V10.1846C5.66807 10.0901 5.72015 10.043 5.82422 10.043H11.2646C11.3401 10.0431 11.3779 10.0902 11.3779 10.1846V15.0146C11.3779 16.1034 11.1225 17.0882 10.6113 17.9688C10.0905 18.8494 9.40305 19.5505 8.55078 20.0713C7.69867 20.5919 6.73779 20.8525 5.66797 20.8525C4.61696 20.8525 3.66988 20.592 2.82715 20.0713C1.9749 19.5505 1.28841 18.8494 0.767578 17.9688C0.256256 17.0881 4.17096e-05 16.1036 0 15.0146V5.7959C0 4.73529 0.260417 3.76867 0.78125 2.89746C1.29255 2.017 1.97929 1.31666 2.84082 0.795898C3.70256 0.265595 4.64524 0 5.66797 0ZM30.2129 0C31.2735 0 32.2256 0.260423 33.0684 0.78125C33.9206 1.30206 34.6019 2.00317 35.1133 2.88379C35.6341 3.755 35.8945 4.72582 35.8945 5.7959L35.9238 15.0146C35.9238 16.0752 35.6676 17.0461 35.1562 17.9268C34.6354 18.8167 33.9437 19.5264 33.082 20.0566C32.2203 20.5869 31.264 20.8525 30.2129 20.8525C29.1808 20.8525 28.2295 20.5869 27.3584 20.0566C26.4967 19.5263 25.7998 18.8211 25.2695 17.9404C24.7488 17.0504 24.4883 16.075 24.4883 15.0146L24.5176 5.7959C24.5176 4.71635 24.778 3.74553 25.2988 2.88379C25.8101 2.01272 26.501 1.31669 27.3721 0.795898C28.2432 0.265641 29.1903 4.60019e-05 30.2129 0ZM69.2754 0C70.336 0 71.2881 0.260424 72.1309 0.78125C72.9831 1.30206 73.6644 2.00317 74.1758 2.88379C74.6966 3.755 74.957 4.72582 74.957 5.7959L74.9863 15.0146C74.9863 16.0752 74.7301 17.0461 74.2188 17.9268C73.6979 18.8167 73.0062 19.5264 72.1445 20.0566C71.2828 20.5869 70.3265 20.8525 69.2754 20.8525C68.2433 20.8525 67.292 20.5869 66.4209 20.0566C65.5592 19.5263 64.8623 18.8211 64.332 17.9404C63.8113 17.0504 63.5508 16.075 63.5508 15.0146L63.5801 5.7959C63.5801 4.71635 63.8405 3.74553 64.3613 2.88379C64.8726 2.01272 65.5635 1.31669 66.4346 0.795898C67.3057 0.265642 68.2528 4.66611e-05 69.2754 0ZM100.64 0C101.719 5.67285e-05 102.68 0.260613 103.522 0.78125C104.375 1.30199 105.052 2.00754 105.554 2.89746C106.065 3.77814 106.321 4.76352 106.321 5.85254V7.1875C106.321 7.26326 106.283 7.30176 106.207 7.30176H102.94C102.865 7.30176 102.827 7.26326 102.827 7.1875V5.85254C102.827 5.20866 102.619 4.65442 102.202 4.19043C101.786 3.7265 101.264 3.49423 100.64 3.49414C99.9484 3.49414 99.4181 3.73159 99.0488 4.20508C98.6795 4.67856 98.4941 5.22754 98.4941 5.85254V14.9287C98.4941 15.6389 98.7025 16.2222 99.1191 16.6768C99.5358 17.1218 100.043 17.3438 100.64 17.3438C101.264 17.3437 101.786 17.0978 102.202 16.6055C102.619 16.1036 102.827 15.5442 102.827 14.9287V13.5801C102.827 13.5043 102.865 13.4658 102.94 13.4658H106.236C106.312 13.466 106.35 13.5045 106.35 13.5801V14.9287C106.35 16.0177 106.093 17.0125 105.582 17.9121C105.061 18.8022 104.375 19.5169 103.522 20.0566C102.67 20.5868 101.71 20.8525 100.64 20.8525C99.5885 20.8525 98.6271 20.5869 97.7559 20.0566C96.8943 19.5264 96.2076 18.8167 95.6963 17.9268C95.1944 17.0271 94.9434 16.0272 94.9434 14.9287L94.9717 5.85254C94.9717 4.7732 95.2177 3.79785 95.71 2.92676C96.2024 2.04612 96.8795 1.33986 97.7412 0.80957C98.6124 0.269798 99.579 0 100.64 0ZM15.3555 0.327148C15.431 0.327237 15.4781 0.364844 15.4971 0.44043L17.8838 13.7646L20.2129 0.44043C20.2318 0.364686 20.2797 0.327148 20.3555 0.327148H23.6084C23.7123 0.327234 23.75 0.36481 23.7217 0.44043L19.7725 20.4268C19.7629 20.5211 19.7159 20.5683 19.6309 20.5684H16.1084C16.0233 20.5684 15.9754 20.5212 15.9658 20.4268L11.9463 0.44043C11.9274 0.364747 11.965 0.327196 12.0596 0.327148H15.3555ZM48.1396 0.327148C48.2341 0.327266 48.2812 0.374289 48.2812 0.46875V3.6084L41.1934 17.1592H48.1963C48.2719 17.1593 48.3095 17.2114 48.3096 17.3154L48.3379 20.4268C48.3377 20.5211 48.2907 20.5683 48.1963 20.5684H37.3438C37.2493 20.5683 37.2023 20.5211 37.2021 20.4268L37.2305 17.2588L44.3613 3.63672H37.6133C37.5284 3.63659 37.4863 3.59809 37.4863 3.52246V0.46875C37.4864 0.374336 37.5284 0.327313 37.6133 0.327148H48.1396ZM55.7812 0.298828C56.8607 0.270423 57.8359 0.516411 58.707 1.03711C59.5876 1.55789 60.2888 2.2633 60.8096 3.15332C61.3399 4.034 61.6055 5.01 61.6055 6.08008V14.4316C61.6055 15.549 61.3356 16.572 60.7959 17.5C60.2467 18.4185 59.5174 19.1529 58.6084 19.7021C57.6993 20.2419 56.6712 20.5211 55.5254 20.54L50.3125 20.5684C50.218 20.5683 50.171 20.5211 50.1709 20.4268L50.2275 0.44043C50.2276 0.364791 50.2652 0.327208 50.3408 0.327148L55.7812 0.298828ZM79.1055 0.327148C79.181 0.327237 79.2281 0.364844 79.2471 0.44043L81.6338 13.7646L83.9629 0.44043C83.9818 0.364686 84.0297 0.327148 84.1055 0.327148H87.3584C87.4623 0.327234 87.5 0.36481 87.4717 0.44043L83.5225 20.4268C83.5129 20.5211 83.4659 20.5683 83.3809 20.5684H79.8584C79.7733 20.5684 79.7254 20.5212 79.7158 20.4268L75.6963 0.44043C75.6774 0.364747 75.715 0.327196 75.8096 0.327148H79.1055ZM92.585 0.327148C92.6607 0.327148 92.6992 0.364731 92.6992 0.44043L92.7275 20.4268C92.7274 20.5212 92.6889 20.5684 92.6133 20.5684H89.3184C89.2238 20.5684 89.1759 20.5212 89.1758 20.4268L89.2051 0.44043C89.2051 0.364731 89.2426 0.327148 89.3184 0.327148H92.585ZM116.815 13.998C117.426 13.998 117.907 14.1508 118.234 14.4453C118.561 14.7398 118.736 15.176 118.736 15.7539H117.547C117.547 15.285 117.307 15.0449 116.849 15.0449C116.663 15.0449 116.521 15.1001 116.412 15.1982C116.303 15.2964 116.26 15.4275 116.26 15.5801C116.26 15.7326 116.303 15.8741 116.401 16.0049C116.489 16.1358 116.587 16.234 116.696 16.3213C116.805 16.4086 117.067 16.5839 117.481 16.8564C117.896 17.1398 118.19 17.3685 118.343 17.543C118.496 17.7284 118.605 17.9036 118.671 18.0781C118.736 18.2524 118.779 18.4377 118.779 18.6338C118.779 19.1354 118.616 19.5393 118.289 19.8447C117.962 20.1502 117.492 20.3037 116.881 20.3037C116.27 20.3036 115.78 20.1504 115.431 19.8232C115.082 19.496 114.907 19.0595 114.907 18.4922H116.118C116.118 18.754 116.183 18.9394 116.325 19.0703C116.467 19.2011 116.652 19.2665 116.881 19.2666C117.088 19.2666 117.252 19.2124 117.383 19.1035C117.514 18.9945 117.579 18.8417 117.579 18.6455C117.579 18.5365 117.525 18.4053 117.427 18.2744C117.318 18.1435 117.099 17.9685 116.75 17.7285C116.401 17.4996 116.161 17.3356 116.02 17.2266C115.867 17.1175 115.714 16.9868 115.562 16.8232C115.398 16.6596 115.267 16.4737 115.169 16.2773C115.071 16.081 115.026 15.863 115.026 15.623C115.026 15.1431 115.18 14.7507 115.496 14.4453C115.801 14.1508 116.248 13.9981 116.815 13.998ZM136.507 14.0195C137.096 14.0195 137.554 14.2054 137.903 14.5654C138.241 14.9254 138.416 15.4049 138.416 16.0156V18.2744C138.416 18.907 138.241 19.3979 137.903 19.7578C137.565 20.1286 137.096 20.3037 136.507 20.3037C135.896 20.3036 135.427 20.1285 135.089 19.7686C134.751 19.4086 134.587 18.9069 134.587 18.2744V16.0156C134.587 15.405 134.751 14.9253 135.089 14.5654C135.427 14.2055 135.896 14.0196 136.507 14.0195ZM123.984 18.5029C123.984 18.7429 124.05 18.9183 124.191 19.0273C124.333 19.1473 124.497 19.2011 124.693 19.2012C124.868 19.2012 125.021 19.1473 125.174 19.0273C125.316 18.9073 125.392 18.732 125.392 18.5029V14.085H126.603V18.3291C126.602 18.9398 126.428 19.4195 126.079 19.7686C125.73 20.1176 125.272 20.292 124.693 20.292C124.093 20.2919 123.624 20.1176 123.286 19.7686C122.937 19.4196 122.774 18.9397 122.773 18.3291V14.085H123.984V18.5029ZM131.311 20.2051H130.176V19.6816C130.143 19.7579 130.067 19.856 129.937 19.9648C129.806 20.0739 129.664 20.1613 129.489 20.2158C129.315 20.2703 129.14 20.292 128.987 20.292C128.704 20.292 128.453 20.2381 128.234 20.1182C128.016 20.0091 127.83 19.8127 127.688 19.54C127.547 19.2782 127.481 18.9068 127.481 18.4268V15.874C127.481 15.2523 127.612 14.783 127.874 14.4775C128.136 14.1721 128.507 14.0195 128.987 14.0195C129.074 14.0196 129.194 14.0417 129.347 14.0635C129.499 14.0962 129.641 14.1615 129.794 14.2705C129.946 14.3794 130.045 14.4666 130.089 14.5537V11.958H131.311V20.2051ZM121.029 14.085H121.979V15.165H121.029V18.3174C121.029 18.7101 121.084 18.9508 121.215 19.0381C121.346 19.1362 121.52 19.1796 121.749 19.1797L121.989 19.1582V20.249L121.51 20.2705C121.139 20.2705 120.833 20.2157 120.582 20.0957C120.32 19.9757 120.135 19.7682 120.004 19.4629C119.873 19.1575 119.818 18.6559 119.818 17.9473V15.165H119.316V14.1611C119.644 14.1611 119.873 14.0847 120.004 13.9102C120.135 13.7465 120.2 13.4411 120.2 13.0049H121.029V14.085ZM133.606 20.2051H132.396V14.085H133.606V20.2051ZM129.401 15.1104C129.183 15.1104 129.009 15.1979 128.889 15.3506C128.758 15.5033 128.703 15.7327 128.703 16.0381V18.2637C128.703 18.5907 128.758 18.82 128.889 18.9727C129.009 19.1253 129.183 19.2011 129.401 19.2012C129.859 19.2012 130.1 18.8961 130.1 18.2637V16.0156C130.1 15.7104 130.034 15.4925 129.914 15.3398C129.783 15.1871 129.62 15.1104 129.401 15.1104ZM136.507 15.1104C136.3 15.1104 136.125 15.1758 135.994 15.3066C135.863 15.4375 135.798 15.6233 135.798 15.8633V18.4482C135.798 18.6989 135.863 18.8847 135.994 19.0156C136.125 19.1465 136.3 19.2011 136.507 19.2012C136.703 19.2012 136.867 19.1465 136.998 19.0156C137.129 18.8847 137.205 18.6991 137.205 18.4482V15.8633C137.205 15.6233 137.14 15.4375 137.009 15.3066C136.878 15.1759 136.703 15.1104 136.507 15.1104ZM30.2129 3.49414C29.6164 3.49421 29.1048 3.71195 28.6787 4.14746C28.2526 4.58307 28.04 5.13302 28.04 5.7959V15.0146C28.0401 15.6489 28.2527 16.1982 28.6787 16.6621C29.1048 17.1166 29.6164 17.3437 30.2129 17.3438C30.8 17.3438 31.3115 17.1072 31.7471 16.6338C32.1826 16.1509 32.4003 15.6111 32.4004 15.0146L32.3721 5.7959C32.3721 5.15202 32.1688 4.60716 31.7617 4.16211C31.3545 3.71703 30.8379 3.49414 30.2129 3.49414ZM69.2754 3.49414C68.6789 3.49421 68.1673 3.71195 67.7412 4.14746C67.3151 4.58307 67.1025 5.13302 67.1025 5.7959V15.0146C67.1026 15.6489 67.3152 16.1982 67.7412 16.6621C68.1673 17.1166 68.6789 17.3437 69.2754 17.3438C69.8625 17.3438 70.374 17.1072 70.8096 16.6338C71.2451 16.1509 71.4628 15.6111 71.4629 15.0146L71.4346 5.7959C71.4346 5.15202 71.2313 4.60716 70.8242 4.16211C70.417 3.71703 69.9004 3.49414 69.2754 3.49414ZM53.75 3.80664L53.7217 16.9893H55.5254C56.245 16.9893 56.8514 16.7381 57.3438 16.2363C57.8362 15.7344 58.082 15.1324 58.082 14.4316V6.05176C58.082 5.43623 57.8549 4.90083 57.4004 4.44629C56.9459 3.98233 56.4062 3.75938 55.7812 3.77832L53.75 3.80664ZM133.018 12.001C133.214 12.001 133.378 12.0778 133.53 12.2305C133.672 12.3832 133.748 12.5468 133.748 12.7432C133.748 12.9395 133.672 13.1141 133.53 13.2559C133.378 13.4086 133.214 13.4746 133.018 13.4746C132.81 13.4746 132.636 13.4085 132.494 13.2559C132.341 13.114 132.275 12.9395 132.275 12.7432C132.275 12.5468 132.341 12.3832 132.494 12.2305C132.636 12.0779 132.81 12.001 133.018 12.001Z" fill="#020304"/>
</svg>
