<svg width="141" height="29" viewBox="0 0 141 29" fill="none" xmlns="http://www.w3.org/2000/svg">
<path d="M6.47727 24.2841C5.42614 24.2841 4.47917 24.0237 3.63636 23.5028C2.78409 22.982 2.09754 22.2812 1.5767 21.4006C1.06534 20.5199 0.809659 19.535 0.809659 18.446V9.22727C0.809659 8.16667 1.07008 7.20076 1.59091 6.32954C2.10227 5.44886 2.78883 4.74811 3.65057 4.22727C4.51231 3.69697 5.45455 3.43182 6.47727 3.43182C7.54735 3.43182 8.51326 3.6875 9.375 4.19886C10.2367 4.7197 10.9186 5.41572 11.4205 6.28693C11.9318 7.15814 12.1875 8.13826 12.1875 9.22727V10.5625C12.1875 10.6383 12.1402 10.6761 12.0455 10.6761H8.77841C8.70265 10.6761 8.66477 10.6383 8.66477 10.5625V9.45455C8.66477 8.71591 8.45644 8.10511 8.03977 7.62216C7.62311 7.1392 7.10227 6.89773 6.47727 6.89773C5.91856 6.89773 5.4214 7.12973 4.9858 7.59375C4.55019 8.05776 4.33239 8.60227 4.33239 9.22727V18.446C4.33239 19.0805 4.54545 19.6297 4.97159 20.0937C5.39773 20.5483 5.89962 20.7756 6.47727 20.7756C7.10227 20.7756 7.62311 20.553 8.03977 20.108C8.45644 19.6534 8.66477 19.0994 8.66477 18.446V17.0114H6.63352C6.52936 17.0114 6.47727 16.964 6.47727 16.8693V13.6165C6.47727 13.5218 6.52936 13.4744 6.63352 13.4744H12.0739C12.1496 13.4744 12.1875 13.5218 12.1875 13.6165V18.446C12.1875 19.535 11.9318 20.5199 11.4205 21.4006C10.8996 22.2812 10.2131 22.982 9.3608 23.5028C8.50852 24.0237 7.54735 24.2841 6.47727 24.2841ZM20.4403 24H16.9176C16.8324 24 16.785 23.9527 16.7756 23.858L12.7557 3.87216C12.7367 3.7964 12.7746 3.75852 12.8693 3.75852H16.1648C16.2405 3.75852 16.2879 3.7964 16.3068 3.87216L18.6932 17.196L21.0227 3.87216C21.0417 3.7964 21.089 3.75852 21.1648 3.75852H24.4176C24.5218 3.75852 24.5597 3.7964 24.5313 3.87216L20.5824 23.858C20.5729 23.9527 20.5256 24 20.4403 24ZM31.0227 24.2841C29.9905 24.2841 29.0388 24.0189 28.1676 23.4886C27.3059 22.9583 26.6098 22.2528 26.0795 21.3722C25.5587 20.482 25.2983 19.5066 25.2983 18.446L25.3267 9.22727C25.3267 8.14773 25.5871 7.17708 26.108 6.31534C26.6193 5.44413 27.3106 4.74811 28.1818 4.22727C29.053 3.69697 30 3.43182 31.0227 3.43182C32.0833 3.43182 33.035 3.69223 33.8778 4.21307C34.7301 4.7339 35.4119 5.43466 35.9233 6.31534C36.4441 7.18655 36.7045 8.1572 36.7045 9.22727L36.733 18.446C36.733 19.5066 36.4773 20.4773 35.9659 21.358C35.4451 22.2481 34.7538 22.9583 33.892 23.4886C33.0303 24.0189 32.0739 24.2841 31.0227 24.2841ZM31.0227 20.7756C31.6098 20.7756 32.1212 20.5388 32.5568 20.0653C32.9924 19.5824 33.2102 19.0426 33.2102 18.446L33.1818 9.22727C33.1818 8.58333 32.9782 8.03883 32.571 7.59375C32.1638 7.14867 31.6477 6.92614 31.0227 6.92614C30.4261 6.92614 29.9148 7.14394 29.4886 7.57954C29.0625 8.01515 28.8494 8.56439 28.8494 9.22727V18.446C28.8494 19.0805 29.0625 19.6297 29.4886 20.0937C29.9148 20.5483 30.4261 20.7756 31.0227 20.7756ZM49.0057 24H38.1534C38.0587 24 38.0114 23.9527 38.0114 23.858L38.0398 20.6903L45.1705 7.06818H38.4233C38.3381 7.06818 38.2955 7.0303 38.2955 6.95454V3.90057C38.2955 3.80587 38.3381 3.75852 38.4233 3.75852H48.9489C49.0436 3.75852 49.0909 3.80587 49.0909 3.90057V7.03977L42.0028 20.5909H49.0057C49.0814 20.5909 49.1193 20.643 49.1193 20.7472L49.1477 23.858C49.1477 23.9527 49.1004 24 49.0057 24ZM56.3352 23.9716L51.1222 24C51.0275 24 50.9801 23.9527 50.9801 23.858L51.0369 3.87216C51.0369 3.7964 51.0748 3.75852 51.1506 3.75852L56.5909 3.73011C57.6705 3.7017 58.6458 3.94792 59.517 4.46875C60.3977 4.98958 61.0985 5.69508 61.6193 6.58523C62.1496 7.46591 62.4148 8.44129 62.4148 9.51136V17.8636C62.4148 18.9811 62.1449 20.0038 61.6051 20.9318C61.0559 21.8504 60.3267 22.5843 59.4176 23.1335C58.5085 23.6733 57.4811 23.9527 56.3352 23.9716ZM56.5909 7.21023L54.5597 7.23864L54.5313 20.4205H56.3352C57.0549 20.4205 57.661 20.1695 58.1534 19.6676C58.6458 19.1657 58.892 18.5644 58.892 17.8636V9.48295C58.892 8.86742 58.6648 8.33239 58.2102 7.87784C57.7557 7.41383 57.2159 7.19129 56.5909 7.21023ZM70.0852 24.2841C69.053 24.2841 68.1013 24.0189 67.2301 23.4886C66.3684 22.9583 65.6724 22.2528 65.142 21.3722C64.6212 20.482 64.3608 19.5066 64.3608 18.446L64.3892 9.22727C64.3892 8.14773 64.6496 7.17708 65.1705 6.31534C65.6818 5.44413 66.3731 4.74811 67.2443 4.22727C68.1155 3.69697 69.0625 3.43182 70.0852 3.43182C71.1458 3.43182 72.0975 3.69223 72.9403 4.21307C73.7926 4.7339 74.4744 5.43466 74.9858 6.31534C75.5066 7.18655 75.767 8.1572 75.767 9.22727L75.7955 18.446C75.7955 19.5066 75.5398 20.4773 75.0284 21.358C74.5076 22.2481 73.8163 22.9583 72.9545 23.4886C72.0928 24.0189 71.1364 24.2841 70.0852 24.2841ZM70.0852 20.7756C70.6724 20.7756 71.1837 20.5388 71.6193 20.0653C72.0549 19.5824 72.2727 19.0426 72.2727 18.446L72.2443 9.22727C72.2443 8.58333 72.0407 8.03883 71.6335 7.59375C71.2263 7.14867 70.7102 6.92614 70.0852 6.92614C69.4886 6.92614 68.9773 7.14394 68.5511 7.57954C68.125 8.01515 67.9119 8.56439 67.9119 9.22727V18.446C67.9119 19.0805 68.125 19.6297 68.5511 20.0937C68.9773 20.5483 69.4886 20.7756 70.0852 20.7756ZM84.1903 24H80.6676C80.5824 24 80.535 23.9527 80.5256 23.858L76.5057 3.87216C76.4867 3.7964 76.5246 3.75852 76.6193 3.75852H79.9148C79.9905 3.75852 80.0379 3.7964 80.0568 3.87216L82.4432 17.196L84.7727 3.87216C84.7917 3.7964 84.839 3.75852 84.9148 3.75852H88.1676C88.2718 3.75852 88.3097 3.7964 88.2813 3.87216L84.3324 23.858C84.3229 23.9527 84.2756 24 84.1903 24ZM93.4233 24H90.1278C90.0331 24 89.9858 23.9527 89.9858 23.858L90.0142 3.87216C90.0142 3.7964 90.0521 3.75852 90.1278 3.75852H93.3949C93.4706 3.75852 93.5085 3.7964 93.5085 3.87216L93.5369 23.858C93.5369 23.9527 93.4991 24 93.4233 24ZM101.449 24.2841C100.398 24.2841 99.4366 24.0189 98.5653 23.4886C97.7036 22.9583 97.017 22.2481 96.5057 21.358C96.0038 20.4583 95.7528 19.4593 95.7528 18.3608L95.7813 9.28409C95.7813 8.20454 96.0275 7.22917 96.5199 6.35795C97.0123 5.47727 97.6894 4.77178 98.5511 4.24148C99.4224 3.7017 100.388 3.43182 101.449 3.43182C102.528 3.43182 103.49 3.69223 104.332 4.21307C105.185 4.7339 105.862 5.43939 106.364 6.32954C106.875 7.21023 107.131 8.19508 107.131 9.28409V10.6193C107.131 10.6951 107.093 10.733 107.017 10.733H103.75C103.674 10.733 103.636 10.6951 103.636 10.6193V9.28409C103.636 8.64015 103.428 8.08617 103.011 7.62216C102.595 7.15814 102.074 6.92614 101.449 6.92614C100.758 6.92614 100.227 7.16288 99.858 7.63636C99.4886 8.10985 99.304 8.65909 99.304 9.28409V18.3608C99.304 19.071 99.5123 19.6534 99.929 20.108C100.346 20.553 100.852 20.7756 101.449 20.7756C102.074 20.7756 102.595 20.5294 103.011 20.0369C103.428 19.535 103.636 18.9763 103.636 18.3608V17.0114C103.636 16.9356 103.674 16.8977 103.75 16.8977H107.045C107.121 16.8977 107.159 16.9356 107.159 17.0114V18.3608C107.159 19.4498 106.903 20.4441 106.392 21.3437C105.871 22.2339 105.185 22.9489 104.332 23.4886C103.48 24.0189 102.519 24.2841 101.449 24.2841Z" fill="#020304"/>
<path d="M117.625 17.4294C118.236 17.4294 118.716 17.5822 119.044 17.8767C119.371 18.1713 119.545 18.6076 119.545 19.1858H118.356C118.356 18.7167 118.116 18.4767 117.658 18.4767C117.473 18.4767 117.331 18.5313 117.222 18.6294C117.113 18.7276 117.069 18.8585 117.069 19.0113C117.069 19.164 117.113 19.3058 117.211 19.4367C117.298 19.5676 117.396 19.6658 117.505 19.7531C117.615 19.8404 117.876 20.0149 118.291 20.2876C118.705 20.5713 119 20.8004 119.153 20.9749C119.305 21.1604 119.415 21.3349 119.48 21.5094C119.545 21.684 119.589 21.8694 119.589 22.0658C119.589 22.5676 119.425 22.9713 119.098 23.2767C118.771 23.5822 118.302 23.7349 117.691 23.7349C117.08 23.7349 116.589 23.5822 116.24 23.2549C115.891 22.9276 115.716 22.4913 115.716 21.924H116.927C116.927 22.1858 116.993 22.3713 117.135 22.5022C117.276 22.6331 117.462 22.6985 117.691 22.6985C117.898 22.6985 118.062 22.644 118.193 22.5349C118.324 22.4258 118.389 22.2731 118.389 22.0767C118.389 21.9676 118.335 21.8367 118.236 21.7058C118.127 21.5749 117.909 21.4004 117.56 21.1604C117.211 20.9313 116.971 20.7676 116.829 20.6585C116.676 20.5494 116.524 20.4185 116.371 20.2549C116.207 20.0913 116.076 19.9058 115.978 19.7094C115.88 19.5131 115.836 19.2949 115.836 19.0549C115.836 18.5749 115.989 18.1822 116.305 17.8767C116.611 17.5822 117.058 17.4294 117.625 17.4294ZM120.399 18.5967H120.126V17.5931C120.454 17.5931 120.683 17.5167 120.814 17.3422C120.945 17.1785 121.01 16.8731 121.01 16.4367H121.839V17.5167H122.788V18.5967H121.839V21.7494C121.839 22.1422 121.894 22.3822 122.025 22.4694C122.155 22.5676 122.33 22.6113 122.559 22.6113L122.799 22.5894V23.6804L122.319 23.7022C121.948 23.7022 121.643 23.6476 121.392 23.5276C121.13 23.4076 120.945 23.2004 120.814 22.8949C120.683 22.5894 120.628 22.0876 120.628 21.3785V18.5967H120.399ZM126.201 21.9349V17.5167H127.412V21.7604C127.412 22.3713 127.238 22.8513 126.889 23.2004C126.54 23.5494 126.081 23.724 125.503 23.724C124.903 23.724 124.434 23.5494 124.096 23.2004C123.747 22.8513 123.583 22.3713 123.583 21.7604V17.5167H124.794V21.9349C124.794 22.1749 124.86 22.3494 125.001 22.4585C125.143 22.5785 125.307 22.6331 125.503 22.6331C125.678 22.6331 125.83 22.5785 125.983 22.4585C126.125 22.3385 126.201 22.164 126.201 21.9349ZM129.797 23.724C129.513 23.724 129.262 23.6694 129.044 23.5494C128.826 23.4404 128.64 23.244 128.498 22.9713C128.357 22.7094 128.291 22.3385 128.291 21.8585V19.3058C128.291 18.684 128.422 18.2149 128.684 17.9094C128.946 17.604 129.317 17.4513 129.797 17.4513C129.884 17.4513 130.004 17.4731 130.157 17.4949C130.309 17.5276 130.451 17.5931 130.604 17.7022C130.757 17.8113 130.855 17.8985 130.898 17.9858V15.3894H132.12V23.6367H130.986V23.1131C130.953 23.1894 130.877 23.2876 130.746 23.3967C130.615 23.5058 130.473 23.5931 130.298 23.6476C130.124 23.7022 129.949 23.724 129.797 23.724ZM130.211 22.6331C130.669 22.6331 130.909 22.3276 130.909 21.6949V19.4476C130.909 19.1422 130.844 18.924 130.724 18.7713C130.593 18.6185 130.429 18.5422 130.211 18.5422C129.993 18.5422 129.818 18.6294 129.698 18.7822C129.568 18.9349 129.513 19.164 129.513 19.4694V21.6949C129.513 22.0222 129.568 22.2513 129.698 22.404C129.818 22.5567 129.993 22.6331 130.211 22.6331ZM134.416 17.5167V23.6367H133.205V17.5167H134.416ZM134.558 16.1749C134.558 16.3713 134.482 16.5458 134.34 16.6876C134.187 16.8404 134.023 16.9058 133.827 16.9058C133.62 16.9058 133.445 16.8404 133.303 16.6876C133.151 16.5458 133.085 16.3713 133.085 16.1749C133.085 15.9785 133.151 15.8149 133.303 15.6622C133.445 15.5094 133.62 15.4331 133.827 15.4331C134.023 15.4331 134.187 15.5094 134.34 15.6622C134.482 15.8149 134.558 15.9785 134.558 16.1749ZM137.317 23.7349C136.706 23.7349 136.237 23.5604 135.899 23.2004C135.56 22.8404 135.397 22.3385 135.397 21.7058V19.4476C135.397 18.8367 135.56 18.3567 135.899 17.9967C136.237 17.6367 136.706 17.4513 137.317 17.4513C137.906 17.4513 138.364 17.6367 138.713 17.9967C139.051 18.3567 139.226 18.8367 139.226 19.4476V21.7058C139.226 22.3385 139.051 22.8294 138.713 23.1894C138.375 23.5604 137.906 23.7349 137.317 23.7349ZM137.317 18.5422C137.11 18.5422 136.935 18.6076 136.804 18.7385C136.673 18.8694 136.608 19.0549 136.608 19.2949V21.8804C136.608 22.1313 136.673 22.3167 136.804 22.4476C136.935 22.5785 137.11 22.6331 137.317 22.6331C137.513 22.6331 137.677 22.5785 137.808 22.4476C137.939 22.3167 138.015 22.1313 138.015 21.8804V19.2949C138.015 19.0549 137.95 18.8694 137.819 18.7385C137.688 18.6076 137.513 18.5422 137.317 18.5422Z" fill="#020304"/>
</svg>
